<svg xmlns="http://www.w3.org/2000/svg" xmlns:xlink="http://www.w3.org/1999/xlink" width="111.33" height="15.59" viewBox="0 0 111.33 15.59">
  <defs>
    <clipPath id="clip-path">
      <rect id="Rectangle_1" data-name="Rectangle 1" width="111.33" height="15.59" transform="translate(0 0)" fill="#3d3c45"/>
    </clipPath>
  </defs>
  <g id="Group_1" data-name="Group 1" transform="translate(0 0)" clip-path="url(#clip-path)">
    <path id="Path_1" data-name="Path 1" d="M12.27,11.56a5.831,5.831,0,0,1-4.52,2.19A5.608,5.608,0,0,1,3.6,12.08,5.765,5.765,0,0,1,1.96,7.79,5.8,5.8,0,0,1,3.6,3.5,5.647,5.647,0,0,1,7.75,1.83a5.106,5.106,0,0,1,4.11,1.94l1.37-1.34A6.9,6.9,0,0,0,7.75,0,7.44,7.44,0,0,0,2.21,2.25,7.483,7.483,0,0,0,0,7.79a7.588,7.588,0,0,0,7.75,7.8,7.986,7.986,0,0,0,3.31-.7,7.278,7.278,0,0,0,2.61-1.97Z" fill="#3d3c45"/>
    <path id="Path_2" data-name="Path 2" d="M25.3.33v6.4H17.84V.33H15.92V15.25h1.92V8.52H25.3v6.73h1.91V.33Z" fill="#3d3c45"/>
    <path id="Path_3" data-name="Path 3" d="M36.76.33H34.59L28.96,15.25h2.13l1.19-3.29.27-.75.65-1.79.67-1.86,1.76-4.88h.09l2.44,6.74.65,1.79h.01l.47,1.32.97,2.72h2.13Z" fill="#3db178"/>
    <path id="Path_4" data-name="Path 4" d="M54.19,2.39A7.454,7.454,0,0,0,48.7.33H44.14V15.25H48.7a7.448,7.448,0,0,0,5.49-2.05,7.248,7.248,0,0,0,2.08-5.41,7.272,7.272,0,0,0-2.08-5.4m-1.38,9.54a5.589,5.589,0,0,1-4.11,1.49H46.05V2.16H48.7a5.52,5.52,0,0,1,4.11,1.51,5.562,5.562,0,0,1,1.5,4.12,5.579,5.579,0,0,1-1.5,4.14" fill="#3d3c45"/>
    <path id="Path_5" data-name="Path 5" d="M67.25,2.16V.33H58.54V15.25h8.71V13.42h-6.8V8.69h6.13V6.89H60.45V2.16Z" fill="#3d3c45"/>
    <path id="Path_6" data-name="Path 6" d="M83.67,7.27H76.44V9.06h5.42a4.991,4.991,0,0,1-1.71,3.44,5.517,5.517,0,0,1-3.71,1.25,5.605,5.605,0,0,1-4.13-1.69,5.867,5.867,0,0,1-1.66-4.27,5.867,5.867,0,0,1,1.66-4.27,5.605,5.605,0,0,1,4.13-1.69,5.927,5.927,0,0,1,2.34.47,4.686,4.686,0,0,1,1.79,1.3l1.37-1.37A6.129,6.129,0,0,0,79.54.58,8.216,8.216,0,0,0,76.44,0a7.476,7.476,0,0,0-5.5,2.25,7.534,7.534,0,0,0-2.25,5.54,7.557,7.557,0,0,0,2.25,5.55,7.476,7.476,0,0,0,5.5,2.25,7.2,7.2,0,0,0,5.48-2.21A6.73,6.73,0,0,0,83.78,8.4a6.354,6.354,0,0,0-.11-1.13" fill="#3d3c45"/>
    <path id="Path_7" data-name="Path 7" d="M92.45.33H90.28L84.65,15.25h2.13l1.46-4.04h6.27l1.44,4.04h2.12ZM88.88,9.42l2.44-6.74h.08l2.44,6.74Z" fill="#3d3c45"/>
    <path id="Path_8" data-name="Path 8" d="M109.41.33V9.06l.08,2.88h-.08L102.16.33H99.82V15.25h1.92V5.96l-.08-2.88h.08l7.59,12.17h2V.33Z" fill="#3d3c45"/>
  </g>
</svg>
